<?xml version="1.0" standalone="no"?>
<!DOCTYPE svg PUBLIC "-//W3C//DTD SVG 20010904//EN"
 "http://www.w3.org/TR/2001/REC-SVG-20010904/DTD/svg10.dtd">
<svg version="1.0" xmlns="http://www.w3.org/2000/svg"
 width="512.000000pt" height="512.000000pt" viewBox="0 0 512.000000 512.000000"
 preserveAspectRatio="xMidYMid meet">

<g transform="translate(0.000000,512.000000) scale(0.100000,-0.100000)"
fill="#000000" stroke="none">
<path d="M393 5106 c-183 -45 -344 -210 -382 -394 -16 -75 -16 -4229 0 -4304
39 -189 208 -358 397 -397 74 -15 4229 -16 4304 0 171 35 329 177 384 345 18
57 19 115 19 2204 0 2089 -1 2147 -19 2204 -56 169 -212 309 -384 345 -81 17
-4249 14 -4319 -3z m4285 -321 c49 -21 81 -52 103 -100 17 -37 19 -75 19 -522
l0 -483 -2240 0 -2240 0 0 480 c0 411 2 486 15 518 21 49 52 81 100 103 38 18
119 19 2123 19 1857 0 2087 -2 2120 -15z m122 -2867 c0 -1382 -1 -1445 -19
-1483 -22 -48 -54 -79 -103 -100 -33 -13 -263 -15 -2120 -15 -2004 0 -2085 1
-2123 19 -48 22 -79 54 -100 103 -13 33 -15 200 -15 1478 l0 1440 2240 0 2240
0 0 -1442z"/>
<path d="M675 4387 c-101 -57 -114 -206 -23 -282 150 -126 364 64 255 226 -53
79 -150 103 -232 56z"/>
<path d="M1285 4391 c-47 -28 -82 -76 -90 -120 -27 -159 161 -269 283 -166 91
76 78 225 -23 282 -51 29 -127 31 -170 4z"/>
<path d="M1895 4394 c-68 -35 -95 -79 -95 -154 0 -59 17 -97 60 -134 113 -94
282 -14 282 134 0 72 -41 135 -105 159 -41 16 -107 13 -142 -5z"/>
<path d="M3393 4379 c-107 -53 -119 -201 -22 -270 l34 -24 505 0 505 0 34 24
c97 70 85 218 -23 270 -41 20 -57 21 -517 21 -461 0 -475 -1 -516 -21z"/>
<path d="M1457 2686 c-102 -37 -138 -145 -78 -237 16 -24 158 -172 315 -329
l286 -285 -309 -310 c-334 -335 -333 -333 -316 -422 9 -49 69 -109 118 -118
90 -17 81 -25 494 388 335 336 383 387 393 425 24 92 25 90 -373 490 -199 200
-375 371 -392 382 -43 26 -94 32 -138 16z"/>
<path d="M2660 1289 c-14 -6 -36 -20 -48 -32 -78 -72 -68 -185 21 -251 28 -21
37 -21 532 -21 493 0 504 0 531 21 53 39 69 71 69 134 0 63 -16 95 -69 134
-27 20 -40 21 -519 23 -313 1 -501 -2 -517 -8z"/>
</g>
</svg>
