<?xml version="1.0" standalone="no"?>
<!DOCTYPE svg PUBLIC "-//W3C//DTD SVG 20010904//EN"
 "http://www.w3.org/TR/2001/REC-SVG-20010904/DTD/svg10.dtd">
<svg version="1.0" xmlns="http://www.w3.org/2000/svg"
 width="512.000000pt" height="512.000000pt" viewBox="0 0 512.000000 512.000000"
 preserveAspectRatio="xMidYMid meet">

<g transform="translate(0.000000,512.000000) scale(0.100000,-0.100000)"
fill="#000000" stroke="none">
<path d="M995 4786 c-94 -30 -159 -76 -208 -149 -72 -106 -67 50 -67 -2077 0
-2124 -5 -1972 65 -2075 41 -60 87 -98 163 -133 l57 -27 1555 0 1555 0 50 23
c115 53 183 126 216 233 18 58 19 120 19 1529 0 808 -3 1475 -6 1483 -7 19
-1189 1178 -1218 1194 -31 18 -2124 17 -2181 -1z m2065 -499 c0 -390 3 -419
63 -531 43 -81 136 -173 217 -214 112 -56 165 -62 553 -62 l347 0 0 -1417 c0
-1417 0 -1417 -21 -1460 -26 -53 -78 -97 -133 -112 -30 -9 -447 -11 -1552 -9
l-1510 3 -42 28 c-23 15 -54 46 -69 69 l-28 42 -3 1920 c-3 2126 -8 1968 62
2035 65 63 15 60 1114 61 l1002 0 0 -353z m700 -287 l365 -360 -310 3 c-296 2
-313 3 -367 25 -80 32 -150 99 -190 180 l-33 67 -3 304 -3 304 88 -81 c48 -45
252 -244 453 -442z"/>
<path d="M1476 3209 c-20 -16 -26 -29 -26 -59 0 -30 6 -43 26 -59 27 -21 29
-21 1084 -21 1055 0 1057 0 1084 21 20 16 26 29 26 59 0 30 -6 43 -26 59 -27
21 -29 21 -1084 21 -1055 0 -1057 0 -1084 -21z"/>
<path d="M1476 2619 c-35 -28 -36 -80 -1 -114 l24 -25 1061 0 1061 0 24 25
c35 34 34 86 -1 114 -27 21 -29 21 -1084 21 -1055 0 -1057 0 -1084 -21z"/>
<path d="M1472 2027 c-27 -29 -28 -77 -3 -108 l19 -24 1072 0 1072 0 19 24
c26 32 25 82 -4 109 l-23 22 -1065 0 -1066 0 -21 -23z"/>
<path d="M2681 1633 c-15 -12 -78 -168 -196 -480 -96 -254 -175 -470 -175
-478 0 -25 55 -75 83 -75 14 0 34 8 46 18 29 23 374 937 366 969 -14 56 -81
80 -124 46z"/>
<path d="M1911 1379 c-108 -110 -201 -212 -207 -227 -6 -14 -9 -35 -5 -47 3
-13 97 -115 207 -229 189 -193 204 -206 238 -206 55 0 82 33 76 95 -1 11 -76
95 -167 187 l-166 167 100 108 c56 59 127 133 158 163 69 66 87 102 73 142
-12 34 -35 48 -79 48 -28 0 -54 -22 -228 -201z"/>
<path d="M2920 1560 c-13 -13 -20 -33 -20 -57 0 -33 11 -47 113 -152 61 -64
137 -142 167 -174 l54 -57 -167 -168 c-152 -154 -167 -171 -167 -203 0 -45 34
-79 79 -79 29 0 53 21 234 206 111 113 205 216 208 228 4 13 1 34 -5 48 -6 15
-99 117 -207 227 -184 189 -199 201 -233 201 -23 0 -43 -7 -56 -20z"/>
</g>
</svg>
